# xmcd CD database file
#
# Track frame offsets:
#	150
#	15272
#	33334
#	49084
#	68883
#
# Disc length: 1202 seconds
#
# Revision: 0
# Processed by: cddbd v1.5.1PL2 Copyright (c) Steve Scherf et al.
# Submitted via: CDex 1.60beta1
#
DISCID=3404b005
DTITLE=SabotageDisk - GO WEST!!
DYEAR=1900
DGENRE=サウンドトラック (一般)
TTITLE0=I Hope So...
TTITLE1=恋わずらい SaboVer.
TTITLE2=小さな勇気〜がんばれ女の子〜
TTITLE3=千鶴 偽善者
TTITLE4=Square Of The Moon
EXTD=
EXTT0=
EXTT1=
EXTT2=
EXTT3=
EXTT4=
PLAYORDER=
